<?xml version="1.0" standalone="no"?>
<!DOCTYPE svg PUBLIC "-//W3C//DTD SVG 20010904//EN"
 "http://www.w3.org/TR/2001/REC-SVG-20010904/DTD/svg10.dtd">
<svg version="1.0" xmlns="http://www.w3.org/2000/svg"
 width="450.000000pt" height="200.000000pt" viewBox="0 0 450.000000 200.000000"
 preserveAspectRatio="xMidYMid meet">

<g transform="translate(0.000000,200.000000) scale(0.100000,-0.100000)"
fill="#000000" stroke="none">
<path d="M135 1394 c-73 -27 -115 -83 -115 -156 0 -24 12 -154 26 -288 18
-175 30 -254 42 -275 10 -17 39 -41 67 -55 49 -24 57 -25 290 -28 l240 -3 55
28 c84 43 86 50 118 359 31 296 30 322 -19 372 -55 56 -93 62 -393 61 -210 0
-280 -4 -311 -15z m435 -270 c19 -11 45 -35 57 -52 45 -68 37 -211 -15 -273
-41 -49 -77 -59 -211 -59 -133 0 -141 4 -141 69 0 26 4 31 25 31 l26 0 -3 98
c-3 94 -4 97 -26 95 -24 -3 -33 13 -45 74 -8 40 -2 42 168 40 111 -2 135 -5
165 -23z"/>
<path d="M425 968 c-4 -40 -5 -86 -3 -103 3 -26 7 -30 33 -28 45 3 65 35 65
103 0 51 -3 61 -26 79 -49 39 -61 30 -69 -51z"/>
<path d="M1935 1394 c-73 -27 -115 -83 -115 -156 0 -24 12 -154 26 -288 18
-175 30 -254 42 -275 10 -17 39 -41 67 -55 49 -24 57 -25 290 -28 l240 -3 55
28 c84 43 86 50 118 359 31 296 30 322 -19 372 -55 56 -93 62 -393 61 -210 0
-280 -4 -311 -15z m301 -344 c42 -55 79 -100 80 -100 2 0 4 25 4 55 0 51 -2
55 -24 55 -24 0 -36 21 -36 68 0 21 3 22 111 22 l110 0 -3 -42 c-2 -36 -7 -44
-25 -46 -22 -3 -23 -7 -23 -125 0 -67 -3 -139 -6 -159 -7 -38 -7 -38 -53 -38
l-46 1 -64 95 c-35 52 -66 92 -69 90 -2 -3 -1 -28 3 -55 5 -40 11 -51 25 -51
12 0 21 -10 25 -31 4 -17 5 -32 3 -34 -1 -2 -46 -5 -98 -6 l-95 -4 -3 32 c-2
24 1 33 18 38 19 6 20 11 14 103 -7 117 -8 122 -32 122 -15 0 -21 9 -26 38
-12 74 -13 72 63 72 l70 0 77 -100z"/>
<path d="M3735 1394 c-73 -27 -115 -83 -115 -156 0 -24 12 -154 26 -288 18
-175 30 -254 42 -275 10 -17 39 -41 67 -55 49 -24 57 -25 290 -28 l240 -3 55
28 c84 43 86 50 118 359 31 296 30 322 -19 372 -55 56 -93 62 -393 61 -210 0
-280 -4 -311 -15z m299 -260 c10 -27 7 -72 -6 -77 -10 -3 -10 -7 1 -20 18 -23
34 -21 50 5 10 16 10 23 2 26 -6 2 -11 21 -11 43 l0 39 95 0 95 0 0 -45 c0
-37 -3 -45 -19 -45 -10 0 -43 -28 -75 -64 -54 -62 -56 -66 -56 -120 0 -49 2
-56 20 -56 16 0 20 -7 20 -35 l0 -35 -75 -2 c-41 -1 -85 -2 -97 -2 -19 -1 -23
5 -26 37 -3 32 0 37 17 37 19 0 21 6 21 58 0 54 -3 60 -51 115 -35 40 -58 57
-75 57 -19 0 -24 5 -24 28 0 15 -3 37 -6 50 -6 22 -5 22 94 22 82 0 101 -3
106 -16z"/>
<path d="M1227 1063 c-20 -71 -40 -142 -43 -160 -4 -22 -13 -33 -31 -38 -22
-5 -24 -10 -21 -53 2 -37 7 -47 21 -46 9 0 55 1 102 2 l85 2 0 34 c0 48 -9 66
-32 66 -13 0 -18 6 -16 18 2 13 15 18 51 20 26 2 47 -1 47 -7 0 -5 3 -16 6
-25 4 -11 1 -16 -10 -16 -12 0 -16 -10 -16 -37 0 -64 5 -66 115 -58 l97 7 -6
30 c-3 17 -6 39 -6 49 0 10 -9 19 -21 21 -17 2 -34 34 -88 161 l-66 157 -65 0
-65 0 -38 -127z m127 -50 c6 -20 4 -23 -17 -23 -24 0 -25 1 -14 35 11 36 17
34 31 -12z"/>
<path d="M2940 1140 c0 -43 3 -50 20 -50 18 0 20 -7 20 -84 0 -108 -7 -143
-31 -149 -15 -4 -19 -14 -19 -46 l0 -42 107 3 c95 3 108 5 111 21 7 34 -7 65
-31 69 -20 3 -22 9 -24 63 -2 50 0 57 10 42 6 -10 39 -59 72 -110 l61 -92 51
0 c29 1 54 3 56 5 3 3 0 80 -7 173 -10 155 -10 167 6 167 23 0 31 15 23 50
l-7 30 -99 0 -100 0 3 -37 c3 -33 7 -38 31 -41 26 -3 27 -6 27 -59 l0 -56 -76
96 -76 97 -64 0 -64 0 0 -50z"/>
</g>
</svg>
